#!OML:ASF H:\LiuWeirdWalks\Patient Classification 1\Patient 1\Session 1\male.ASF
:FULLY-SPECIFIED
:DEGREES
705
root 1.87803 18.295 -12.2571 1.44571 6.912 -8.21434
lowerback 10.2467 -0.741036 -5.80108
upperback 1.31175 -1.63991 -0.317973
thorax -4.22308 -0.718599 3.15701
lowerneck -25.9458 1.96958 9.24341
upperneck 31.3157 -0.29573 -2.56233
head 15.3626 0.631832 -2.71812
rclavicle -1.98785e-015 4.77083e-015
rhumerus -18.9938 -36.1035 -6.51784
rradius 28.5711
rwrist 4.34199
rhand -24.2088 -0.666821
rfingers 7.12502
rthumb 2.27574 -30.6344
lclavicle -1.98785e-015 4.77083e-015
lhumerus -25.0128 29.091 33.6595
lradius 37.6496
lwrist 7.45564
lhand -22.4239 -3.08317
lfingers 7.12502
lthumb 3.9994 26.859
rfemur -5.95796 -7.09446 20.6732
rtibia 45.029
rfoot -7.2301 -19.5211
rtoes -12.405
lfemur -13.16 5.64246 -9.68472
ltibia 23.488
lfoot -10.3203 7.86185
ltoes -11.7727
706
root 1.88929 18.2929 -12.2021 1.41619 7.13034 -8.20151
lowerback 10.2362 -0.754284 -5.96659
upperback 1.27273 -1.68025 -0.39957
thorax -4.25208 -0.734561 3.17021
lowerneck -25.9049 1.9063 9.19191
upperneck 31.3575 -0.427836 -2.38269
head 15.3651 0.599025 -2.66
rclavicle -2.64384e-014 -4.6118e-014
rhumerus -19.027 -35.9796 -6.57343
rradius 28.6107
rwrist 4.25558
rhand -24.1604 -0.70581
rfingers 7.12502
rthumb 2.32241 -30.6729
lclavicle -2.64384e-014 -4.6118e-014
lhumerus -25.0088 29.064 33.5829
lradius 37.6713
lwrist 7.51183
lhand -22.4278 -3.11991
lfingers 7.12502
lthumb 3.99568 26.8224
rfemur -6.10003 -7.19956 20.6483
rtibia 44.7449
rfoot -7.3479 -19.7131
rtoes -12.3432
lfemur -13.0012 5.72871 -9.70184
ltibia 23.5278
lfoot -10.4867 7.62694
ltoes -12.0325
707
root 1.89957 18.2907 -12.1473 1.37886 7.35264 -8.18909
lowerback 10.2316 -0.76991 -6.13296
upperback 1.24818 -1.7235 -0.476555
thorax -4.26866 -0.752529 3.18897
lowerneck -25.9015 1.86706 9.18087
upperneck 31.4008 -0.533635 -2.24004
head 15.3788 0.576795 -2.61947
rclavicle 2.46493e-014 1.27222e-014
rhumerus -19.04 -35.8419 -6.6369
rradius 28.67
rwrist 4.14648
rhand -24.1557 -0.770303
rfingers 7.12502
rthumb 2.32696 -30.7374
lclavicle 2.46493e-014 1.27222e-014
lhumerus -24.9939 29.0949 33.4986
lradius 37.6627
lwrist 7.51965
lhand -22.4301 -3.12683
lfingers 7.12502
lthumb 3.99349 26.8155
rfemur -6.22501 -7.32196 20.6283
rtibia 44.4206
rfoot -7.52741 -19.9717
rtoes -12.2176
lfemur -12.8411 5.79345 -9.71831
ltibia 23.5725
lfoot -10.649 7.42177
ltoes -12.2445
708
root 1.90916 18.2883 -12.0931 1.33713 7.5807 -8.15953
lowerback 10.2379 -0.791917 -6.30648
upperback 1.23272 -1.7768 -0.561508
thorax -4.28067 -0.775663 3.20481
lowerneck -25.9282 1.80985 9.11305
upperneck 31.4518 -0.665335 -2.04118
head 15.4017 0.545636 -2.55097
rclavicle 1.98785e-015 -1.27222e-014
rhumerus -19.0259 -35.7658 -6.71303
rradius 28.7215
rwrist 4.09067
rhand -24.1668 -0.837443
rfingers 7.12502
rthumb 2.31623 -30.8046
lclavicle 1.98785e-015 -1.27222e-014
lhumerus -24.9813 29.1485 33.3969
lradius 37.6326
lwrist 7.51277
lhand -22.4502 -3.10687
lfingers 7.12502
lthumb 3.97406 26.8358
rfemur -6.33505 -7.46139 20.5923
rtibia 44.0647
rfoot -7.75136 -20.2854
rtoes -12.0389
lfemur -12.6817 5.83466 -9.75526
ltibia 23.6245
lfoot -10.8075 7.24983
ltoes -12.4449
709
root 1.91751 18.2855 -12.0396 1.28806 7.80628 -8.14694
lowerback 10.2535 -0.815766 -6.46094
upperback 1.22612 -1.83055 -0.641177
thorax -4.28876 -0.799576 3.21559
lowerneck -25.9571 1.73052 8.97987
upperneck 31.5426 -0.825093 -1.77928
head 15.443 0.505808 -2.45107
rclavicle -1.98785e-015 -2.8625e-014
rhumerus -18.9911 -35.7145 -6.78878
rradius 28.7599
rwrist 4.08762
rhand -24.1847 -0.864298
rfingers 7.12502
rthumb 2.29897 -30.8317
lclavicle -1.98785e-015 -2.8625e-014
lhumerus -24.9739 29.2113 33.2909
lradius 37.5928
lwrist 7.5025
lhand -22.471 -3.06704
lfingers 7.12502
lthumb 3.95392 26.876
rfemur -6.43999 -7.59414 20.5854
rtibia 43.6838
rfoot -8.02282 -20.65
rtoes -11.8116
lfemur -12.5293 5.85172 -9.77121
ltibia 23.6902
lfoot -10.955 7.11517
ltoes -12.6126
710
root 1.9248 18.2825 -11.987 1.23325 8.03372 -8.13838
lowerback 10.2789 -0.844191 -6.6031
upperback 1.22372 -1.8898 -0.724635
thorax -4.29778 -0.826459 3.21639
lowerneck -25.9773 1.65444 8.86036
upperneck 31.565 -0.982647 -1.52101
head 15.4514 0.465565 -2.35299
rclavicle -8.34896e-015 1.90833e-014
rhumerus -18.9329 -35.6954 -6.87062
rradius 28.7771
rwrist 4.12772
rhand -24.2115 -0.865128
rfingers 7.12502
rthumb 2.27309 -30.8328
lclavicle -8.34896e-015 1.90833e-014
lhumerus -24.9633 29.293 33.1738
lradius 37.5269
lwrist 7.49567
lhand -22.5004 -3.01419
lfingers 7.12502
lthumb 3.92559 26.9294
rfemur -6.54318 -7.72016 20.5915
rtibia 43.2852
rfoot -8.32328 -21.0422
rtoes -11.536
lfemur -12.3876 5.84156 -9.78311
ltibia 23.775
lfoot -11.0907 7.01811
ltoes -12.7615
711
root 1.93118 18.2791 -11.9355 1.17699 8.26511 -8.14143
lowerback 10.3177 -0.877345 -6.72218
upperback 1.2169 -1.95417 -0.809169
thorax -4.31907 -0.855708 3.20421
lowerneck -25.981 1.58596 8.77546
upperneck 31.5721 -1.13443 -1.28405
head 15.45 0.428194 -2.2683
rclavicle -5.1684e-015 3.49861e-014
rhumerus -18.8702 -35.6586 -6.94553
rradius 28.7918
rwrist 4.18063
rhand -24.2047 -0.82327
rfingers 7.12502
rthumb 2.2797 -30.7908
lclavicle -5.1684e-015 3.49861e-014
lhumerus -24.9652 29.3575 33.0483
lradius 37.4523
lwrist 7.50742
lhand -22.5446 -2.94325
lfingers 7.12502
lthumb 3.88286 27.0011
rfemur -6.65147 -7.84365 20.6165
rtibia 42.8734
rfoot -8.65484 -21.4291
rtoes -11.2471
lfemur -12.265 5.80903 -9.78487
ltibia 23.8823
lfoot -11.2189 6.95176
ltoes -12.8901
712
root 1.93661 18.2754 -11.8848 1.11361 8.49237 -8.1796
lowerback 10.3497 -0.910659 -6.80342
upperback 1.22271 -2.01284 -0.880947
thorax -4.32461 -0.883519 3.18304
lowerneck -26.0264 1.52138 8.68476
upperneck 31.5806 -1.28085 -1.0525
head 15.4595 0.391848 -2.18422
rclavicle -1.70955e-014 -1.59028e-014
rhumerus -18.7905 -35.6536 -7.00246
rradius 28.7947
rwrist 4.26765
rhand -24.188 -0.77049
rfingers 7.12502
rthumb 2.29584 -30.7379
lclavicle -1.70955e-014 -1.59028e-014
lhumerus -24.958 29.447 32.936
lradius 37.3545
lwrist 7.50496
lhand -22.5919 -2.85962
lfingers 7.12502
lthumb 3.83718 27.0856
rfemur -6.7656 -7.95005 20.6877
rtibia 42.4515
rfoot -8.99287 -21.7973
rtoes -10.9513
lfemur -12.1562 5.75151 -9.74886
ltibia 24.013
lfoot -11.3435 6.91918
ltoes -12.9838
713
root 1.94163 18.2717 -11.8347 1.05535 8.71374 -8.22513
lowerback 10.3769 -0.939013 -6.8702
upperback 1.22864 -2.06265 -0.945667
thorax -4.32854 -0.907217 3.15986
lowerneck -26.0858 1.46964 8.64075
upperneck 31.5842 -1.40971 -0.877738
head 15.4702 0.359954 -2.12869
rclavicle -5.96354e-015 7.95139e-015
rhumerus -18.7192 -35.5788 -7.03203
rradius 28.8245
rwrist 4.25104
rhand -24.168 -0.762851
rfingers 7.12502
rthumb 2.31515 -30.73
lclavicle -5.96354e-015 7.95139e-015
lhumerus -24.9538 29.5297 32.8505
lradius 37.2487
lwrist 7.49967
lhand -22.6462 -2.77255
lfingers 7.12502
lthumb 3.78473 27.1736
rfemur -6.89261 -8.04846 20.7666
rtibia 42.0227
rfoot -9.33848 -22.1139
rtoes -10.6644
lfemur -12.0657 5.66539 -9.70862
ltibia 24.1649
lfoot -11.4695 6.9248
ltoes -13.0214
714
root 1.94637 18.2678 -11.7852 0.992524 8.9307 -8.28908
lowerback 10.4183 -0.964718 -6.90945
upperback 1.23216 -2.10663 -0.99759
thorax -4.344 -0.927959 3.1344
lowerneck -26.1888 1.42544 8.61092
upperneck 31.6176 -1.5244 -0.744929
head 15.505 0.330873 -2.0914
rclavicle -2.78299e-015 2.06736e-014
rhumerus -18.644 -35.5374 -7.02537
rradius 28.8575
rwrist 4.2342
rhand -24.154 -0.779852
rfingers 7.12502
rthumb 2.32868 -30.7469
lclavicle -2.78299e-015 2.06736e-014
lhumerus -24.9736 29.5919 32.7875
lradius 37.1443
lwrist 7.49051
lhand -22.663 -2.69826
lfingers 7.12502
lthumb 3.76855 27.2482
rfemur -7.01993 -8.14529 20.861
rtibia 41.5899
rfoot -9.67986 -22.3553
rtoes -10.4389
lfemur -11.983 5.56097 -9.64982
ltibia 24.3332
lfoot -11.5969 6.94474
ltoes -12.992
715
root 1.9508 18.2636 -11.736 0.925338 9.13913 -8.36711
lowerback 10.4711 -0.984081 -6.93051
upperback 1.23871 -2.14033 -1.035
thorax -4.36374 -0.943765 3.11295
lowerneck -26.2735 1.38202 8.58381
upperneck 31.6773 -1.62921 -0.635371
head 15.5485 0.303742 -2.06283
rclavicle -3.97569e-015 4.45278e-014
rhumerus -18.5675 -35.5056 -6.98543
rradius 28.9081
rwrist 4.1759
rhand -24.1625 -0.869455
rfingers 7.12502
rthumb 2.32043 -30.8366
lclavicle -3.97569e-015 4.45278e-014
lhumerus -25.0102 29.6232 32.7686
lradius 37.0621
lwrist 7.50267
lhand -22.6858 -2.61756
lfingers 7.12502
lthumb 3.74655 27.3293
rfemur -7.14891 -8.23981 20.9655
rtibia 41.1584
rfoot -10.0152 -22.5249
rtoes -10.2669
lfemur -11.9025 5.43865 -9.57548
ltibia 24.512
lfoot -11.7229 6.97805
ltoes -12.917
